<?xml version="1.0" encoding="UTF-8" standalone="no"?>
<!-- Created with Inkscape (http://www.inkscape.org/) -->

<svg
   width="210mm"
   height="297mm"
   viewBox="0 0 210 297"
   version="1.1"
   id="svg1"
   inkscape:version="1.3.2 (091e20ef0f, 2023-11-25)"
   sodipodi:docname="UI.svg"
   xmlns:inkscape="http://www.inkscape.org/namespaces/inkscape"
   xmlns:sodipodi="http://sodipodi.sourceforge.net/DTD/sodipodi-0.dtd"
   xmlns="http://www.w3.org/2000/svg"
   xmlns:svg="http://www.w3.org/2000/svg">
  <sodipodi:namedview
     id="namedview1"
     pagecolor="#505050"
     bordercolor="#eeeeee"
     borderopacity="1"
     inkscape:showpageshadow="0"
     inkscape:pageopacity="0"
     inkscape:pagecheckerboard="0"
     inkscape:deskcolor="#505050"
     inkscape:document-units="mm"
     inkscape:zoom="0.51339147"
     inkscape:cx="655.44525"
     inkscape:cy="610.64513"
     inkscape:window-width="1920"
     inkscape:window-height="1012"
     inkscape:window-x="0"
     inkscape:window-y="0"
     inkscape:window-maximized="1"
     inkscape:current-layer="layer1" />
  <defs
     id="defs1" />
  <g
     inkscape:label="Слой 1"
     inkscape:groupmode="layer"
     id="layer1">
    <path
       id="path1"
       style="fill:#ffffff;stroke-width:3.05785;stroke-linecap:round;fill-opacity:1"
       d="M 65.060111 97.686027 A 33.866665 33.866665 0 0 0 31.193445 131.55269 A 33.866665 33.866665 0 0 0 65.060111 165.41936 A 33.866665 33.866665 0 0 0 98.926778 131.55269 A 33.866665 33.866665 0 0 0 65.060111 97.686027 z M 65.060111 100.86103 A 30.691668 30.691668 0 0 1 95.751778 131.55269 A 30.691668 30.691668 0 0 1 65.060111 162.24436 A 30.691668 30.691668 0 0 1 34.368445 131.55269 A 30.691668 30.691668 0 0 1 65.060111 100.86103 z "
       inkscape:export-filename="stick_frame.png"
       inkscape:export-xdpi="96"
       inkscape:export-ydpi="96" />
    <circle
       style="fill:#ffffff;fill-opacity:1;stroke-width:0.76446;stroke-linecap:round"
       id="circle1"
       cx="115.52715"
       cy="105.42385"
       r="8.4666662"
       inkscape:export-filename="stick_point.png"
       inkscape:export-xdpi="96"
       inkscape:export-ydpi="96" />
    <path
       id="path2"
       style="fill:#ffffff;fill-opacity:1;stroke-width:3.05785;stroke-linecap:round"
       d="m 179.30833,97.686027 a 33.866665,33.866665 0 0 0 -33.86666,33.866663 33.866665,33.866665 0 0 0 33.86666,33.86667 33.866665,33.866665 0 0 0 33.86667,-33.86667 33.866665,33.866665 0 0 0 -33.86667,-33.866663 z m 0,3.175003 A 30.691668,30.691668 0 0 1 210,131.55269 a 30.691668,30.691668 0 0 1 -30.69167,30.69167 30.691668,30.691668 0 0 1 -30.69166,-30.69167 30.691668,30.691668 0 0 1 30.69166,-30.69166 z"
       inkscape:export-filename="jump_button.png"
       inkscape:export-xdpi="96"
       inkscape:export-ydpi="96" />
    <text
       xml:space="preserve"
       style="font-weight:bold;font-size:16.9333px;line-height:0.1;font-family:'DejaVu Sans';-inkscape-font-specification:'DejaVu Sans Bold';text-align:center;letter-spacing:-0.764646px;word-spacing:0.894292px;text-anchor:middle;fill:#ffffff;fill-opacity:1;stroke-width:4.23333;stroke-linecap:round"
       x="180.13103"
       y="136.02994"
       id="text2"><tspan
         sodipodi:role="line"
         id="tspan2"
         style="stroke-width:4.23333"
         x="179.7487"
         y="136.02994">JUMP</tspan></text>
    <path
       id="path3"
       style="fill:#ffffff;fill-opacity:1;stroke-width:3.05785;stroke-linecap:round"
       d="m 252.85007,97.686027 a 33.866665,33.866665 0 0 0 -33.86666,33.866663 33.866665,33.866665 0 0 0 33.86666,33.86667 33.866665,33.866665 0 0 0 33.86667,-33.86667 33.866665,33.866665 0 0 0 -33.86667,-33.866663 z m 0,3.175003 a 30.691668,30.691668 0 0 1 30.69167,30.69166 30.691668,30.691668 0 0 1 -30.69167,30.69167 30.691668,30.691668 0 0 1 -30.69166,-30.69167 30.691668,30.691668 0 0 1 30.69166,-30.69166 z"
       inkscape:export-filename="punch_button.png"
       inkscape:export-xdpi="96"
       inkscape:export-ydpi="96" />
    <text
       xml:space="preserve"
       style="font-weight:bold;font-size:16.9333px;line-height:0.1;font-family:'DejaVu Sans';-inkscape-font-specification:'DejaVu Sans Bold';text-align:center;letter-spacing:-0.764646px;word-spacing:0.894292px;text-anchor:middle;fill:#ffffff;fill-opacity:1;stroke-width:4.23333;stroke-linecap:round"
       x="252.85008"
       y="137.71664"
       id="text3"><tspan
         sodipodi:role="line"
         id="tspan3"
         style="stroke-width:4.23333"
         x="252.46776"
         y="137.71664">PUNCH</tspan></text>
    <path
       id="path4"
       style="fill:#ffffff;fill-opacity:1;stroke-width:3.05785;stroke-linecap:round"
       d="m 326.39181,97.686027 a 33.866665,33.866665 0 0 0 -33.86666,33.866663 33.866665,33.866665 0 0 0 33.86666,33.86667 33.866665,33.866665 0 0 0 33.86667,-33.86667 33.866665,33.866665 0 0 0 -33.86667,-33.866663 z m 0,3.175003 a 30.691668,30.691668 0 0 1 30.69167,30.69166 30.691668,30.691668 0 0 1 -30.69167,30.69167 30.691668,30.691668 0 0 1 -30.69166,-30.69167 30.691668,30.691668 0 0 1 30.69166,-30.69166 z"
       inkscape:export-filename="kick_button.png"
       inkscape:export-xdpi="96"
       inkscape:export-ydpi="96" />
    <text
       xml:space="preserve"
       style="font-weight:bold;font-size:16.9333px;line-height:0.1;font-family:'DejaVu Sans';-inkscape-font-specification:'DejaVu Sans Bold';text-align:center;letter-spacing:-0.764646px;word-spacing:0.894292px;text-anchor:middle;fill:#ffffff;fill-opacity:1;stroke-width:4.23333;stroke-linecap:round"
       x="325.35828"
       y="137.71664"
       id="text4"><tspan
         sodipodi:role="line"
         id="tspan4"
         style="stroke-width:4.23333"
         x="324.97595"
         y="137.71664">KICK</tspan></text>
  </g>
</svg>
